<svg id="Layer_1" height="512" viewBox="0 0 150 150" width="512" xmlns="http://www.w3.org/2000/svg" data-name="Layer 1"><path d="m139 117h-128a1 1 0 0 1 -1-1v-82a1 1 0 0 1 1-1h128a1 1 0 0 1 1 1v82a1 1 0 0 1 -1 1zm-127-2h126v-80h-126z"/><path d="m139 117h-128a1 1 0 0 1 -.555-1.832l55.355-36.89a1 1 0 0 1 1.11 1.664l-52.61 35.058h121.4l-52.6-35.058a1 1 0 1 1 1.11-1.664l55.35 36.89a1 1 0 0 1 -.56 1.832z"/><path d="m75 87.147a1 1 0 0 1 -.631-.224l-64-52.076a1 1 0 0 1 .631-1.776h128a1 1 0 0 1 .631 1.776l-64 52.076a1 1 0 0 1 -.631.224zm-61.187-52.076 61.187 49.787 61.187-49.787z"/></svg>